<?xml version="1.0" encoding="UTF-8"?>
<!DOCTYPE svg PUBLIC "-//W3C//DTD SVG 1.1//EN" "http://www.w3.org/Graphics/SVG/1.1/DTD/svg11.dtd">
<svg xmlns="http://www.w3.org/2000/svg" version="1.1" width="1775px" height="345px" style="shape-rendering:geometricPrecision; text-rendering:geometricPrecision; image-rendering:optimizeQuality; fill-rule:evenodd; clip-rule:evenodd" xmlns:xlink="http://www.w3.org/1999/xlink">
<g><path style="opacity:0.028" fill="#f8fafb" d="M 13.5,21.5 C 31.1635,20.8334 48.9968,20.5001 67,20.5C 85.1794,20.5004 103.013,21.1671 120.5,22.5C 120.167,22.5 119.833,22.5 119.5,22.5C 84.3373,21.5016 49.0039,21.1683 13.5,21.5 Z"/></g>
<g><path style="opacity:0.029" fill="#f8f9fb" d="M 333.5,21.5 C 351.164,20.8334 368.997,20.5001 387,20.5C 405.179,20.5004 423.013,21.1671 440.5,22.5C 440.167,22.5 439.833,22.5 439.5,22.5C 404.337,21.5016 369.004,21.1683 333.5,21.5 Z"/></g>
<g><path style="opacity:1" fill="#e0c3c3" d="M 252.5,27.5 C 251.067,26.1667 249.733,24.6667 248.5,23C 213.502,22.5 178.502,22.3333 143.5,22.5C 141.502,120.494 140.836,218.828 141.5,317.5C 141.5,318.5 141.5,319.5 141.5,320.5C 141.5,320.833 141.5,321.167 141.5,321.5C 140.334,221.668 140.168,121.668 141,21.5C 176.429,20.3375 211.929,20.1708 247.5,21C 250.493,22.1585 252.16,24.3252 252.5,27.5 Z"/></g>
<g><path style="opacity:0.392" fill="#cebab7" d="M 1055.5,22.5 C 999.5,22.5 943.5,22.5 887.5,22.5C 887.783,21.7109 888.283,21.0442 889,20.5C 944.598,21.1647 1000.1,21.8313 1055.5,22.5 Z"/></g>
<g><path style="opacity:0.412" fill="#c6b0af" d="M 1463.5,23.5 C 1463.17,23.5 1462.83,23.5 1462.5,23.5C 1377.67,22.5007 1292.67,22.1673 1207.5,22.5C 1207.78,21.7109 1208.28,21.0442 1209,20.5C 1292.96,21.831 1376.96,21.831 1461,20.5C 1462.75,20.7483 1463.58,21.7483 1463.5,23.5 Z"/></g>
<g><path style="opacity:1" fill="#b12923" d="M 119.5,22.5 C 119.5,121.833 119.5,221.167 119.5,320.5C 84.8333,320.5 50.1667,320.5 15.5,320.5C 14.5025,221.237 14.1691,121.904 14.5,22.5C 49.5,22.5 84.5,22.5 119.5,22.5 Z"/></g>
<g><path style="opacity:1" fill="#b12a23" d="M 143.5,22.5 C 178.502,22.3333 213.502,22.5 248.5,23C 249.733,24.6667 251.067,26.1667 252.5,27.5C 252.427,29.0269 253.094,30.0269 254.5,30.5C 255.674,31.5137 256.34,32.847 256.5,34.5C 257.03,36.9237 257.864,39.257 259,41.5C 259.383,40.944 259.883,40.6107 260.5,40.5C 260.241,42.9893 261.241,44.656 263.5,45.5C 263.738,47.4044 264.738,48.7377 266.5,49.5C 267.338,49.8417 267.672,50.5084 267.5,51.5C 267.738,53.4044 268.738,54.7377 270.5,55.5C 271.674,56.5137 272.34,57.847 272.5,59.5C 272.427,61.0269 273.094,62.0269 274.5,62.5C 274.427,64.0269 275.094,65.0269 276.5,65.5C 276.241,67.9893 277.241,69.656 279.5,70.5C 279.427,72.0269 280.094,73.0269 281.5,73.5C 281.427,75.0269 282.094,76.0269 283.5,76.5C 283.427,78.0269 284.094,79.0269 285.5,79.5C 285.241,81.9893 286.241,83.656 288.5,84.5C 288.427,86.0269 289.094,87.0269 290.5,87.5C 290.427,89.0269 291.094,90.0269 292.5,90.5C 292.427,92.0269 293.094,93.0269 294.5,93.5C 294.427,95.0269 295.094,96.0269 296.5,96.5C 296.241,98.9893 297.241,100.656 299.5,101.5C 299.427,103.027 300.094,104.027 301.5,104.5C 301.427,106.027 302.094,107.027 303.5,107.5C 304.338,107.842 304.672,108.508 304.5,109.5C 304.427,111.027 305.094,112.027 306.5,112.5C 306.427,114.027 307.094,115.027 308.5,115.5C 308.427,117.027 309.094,118.027 310.5,118.5C 311.338,118.842 311.672,119.508 311.5,120.5C 311.427,122.027 312.094,123.027 313.5,123.5C 313.427,125.027 314.094,126.027 315.5,126.5C 315.427,128.027 316.094,129.027 317.5,129.5C 317.427,131.027 318.094,132.027 319.5,132.5C 320.338,132.842 320.672,133.508 320.5,134.5C 320.427,136.027 321.094,137.027 322.5,137.5C 322.427,139.027 323.094,140.027 324.5,140.5C 325.338,140.842 325.672,141.508 325.5,142.5C 325.427,144.027 326.094,145.027 327.5,145.5C 327.427,147.027 328.094,148.027 329.5,148.5C 329.427,150.027 330.094,151.027 331.5,151.5C 331.369,152.376 331.702,153.043 332.5,153.5C 333.5,109.838 333.833,66.1718 333.5,22.5C 368.833,22.5 404.167,22.5 439.5,22.5C 439.5,121.833 439.5,221.167 439.5,320.5C 404.167,320.5 368.833,320.5 333.5,320.5C 331.684,318.882 330.351,316.882 329.5,314.5C 329.201,312.545 328.201,311.211 326.5,310.5C 325.396,308.611 324.063,306.945 322.5,305.5C 322.25,303.326 321.25,301.659 319.5,300.5C 318.094,300.027 317.427,299.027 317.5,297.5C 317.13,294.733 315.796,292.733 313.5,291.5C 312.662,291.158 312.328,290.492 312.5,289.5C 312.446,287.368 311.446,286.035 309.5,285.5C 308.662,285.158 308.328,284.492 308.5,283.5C 308.13,280.733 306.796,278.733 304.5,277.5C 304.573,275.973 303.906,274.973 302.5,274.5C 301.662,274.158 301.328,273.492 301.5,272.5C 301.13,269.733 299.796,267.733 297.5,266.5C 297.573,264.973 296.906,263.973 295.5,263.5C 294.662,263.158 294.328,262.492 294.5,261.5C 294.13,258.733 292.796,256.733 290.5,255.5C 290.13,252.733 288.796,250.733 286.5,249.5C 285.662,249.158 285.328,248.492 285.5,247.5C 285.13,244.733 283.796,242.733 281.5,241.5C 280.662,241.158 280.328,240.492 280.5,239.5C 280.446,237.368 279.446,236.035 277.5,235.5C 276.662,235.158 276.328,234.492 276.5,233.5C 275.925,230.046 274.258,227.379 271.5,225.5C 270.925,222.046 269.258,219.379 266.5,217.5C 264.478,215.469 262.811,213.135 261.5,210.5C 261.25,208.326 260.25,206.659 258.5,205.5C 258.759,203.011 257.759,201.344 255.5,200.5C 255.13,197.733 253.796,195.733 251.5,194.5C 251.262,192.355 250.262,190.688 248.5,189.5C 247.5,233.162 247.167,276.828 247.5,320.5C 212.167,320.5 176.833,320.5 141.5,320.5C 141.5,319.5 141.5,318.5 141.5,317.5C 142.309,315.708 142.809,313.708 143,311.5C 143.5,215.167 143.667,118.834 143.5,22.5 Z"/></g>
<g><path style="opacity:1" fill="#b12a24" d="M 569.5,22.5 C 625.5,22.5 681.5,22.5 737.5,22.5C 737.17,42.6736 737.503,62.6736 738.5,82.5C 739.776,89.7723 739.776,97.4389 738.5,105.5C 697.337,106.499 656.003,106.832 614.5,106.5C 606.648,106.175 598.982,106.508 591.5,107.5C 587.6,108.43 583.6,108.763 579.5,108.5C 576.421,108.26 573.421,108.593 570.5,109.5C 569.548,111.045 569.215,112.712 569.5,114.5C 568.735,117.096 568.401,119.763 568.5,122.5C 569.219,124.888 570.885,126.388 573.5,127C 576.393,128.149 579.393,128.649 582.5,128.5C 600.326,129.497 618.326,129.83 636.5,129.5C 643.761,129.614 650.761,130.614 657.5,132.5C 659.988,134.388 662.988,135.055 666.5,134.5C 666.833,134.5 667.167,134.5 667.5,134.5C 670.143,136.442 672.977,138.109 676,139.5C 677.356,138.62 678.856,138.286 680.5,138.5C 691.559,141.525 701.225,146.858 709.5,154.5C 710.262,156.262 711.596,157.262 713.5,157.5C 714.5,157.833 715.167,158.5 715.5,159.5C 716.08,161.749 717.413,163.415 719.5,164.5C 720.262,168.177 722.262,170.844 725.5,172.5C 725.427,174.027 726.094,175.027 727.5,175.5C 730.793,180.699 733.127,186.365 734.5,192.5C 734.565,195.428 735.232,198.095 736.5,200.5C 737.369,202.717 737.702,205.05 737.5,207.5C 737.5,218.5 737.5,229.5 737.5,240.5C 737.5,240.833 737.5,241.167 737.5,241.5C 736.307,241.97 735.64,242.97 735.5,244.5C 734.79,247.799 734.457,251.133 734.5,254.5C 733.21,255.058 732.377,256.058 732,257.5C 731.853,261.617 730.186,264.95 727,267.5C 726.667,267.167 726.333,266.833 726,266.5C 725.333,267.5 725.333,268.5 726,269.5C 726.654,268.304 727.154,268.304 727.5,269.5C 725.995,270.842 725.328,272.508 725.5,274.5C 724.89,275.391 724.557,276.391 724.5,277.5C 722.674,279.147 721.34,281.147 720.5,283.5C 720.5,284.167 720.167,284.5 719.5,284.5C 715.167,288.167 711.167,292.167 707.5,296.5C 705.973,296.427 704.973,297.094 704.5,298.5C 702.973,298.427 701.973,299.094 701.5,300.5C 698.341,300.574 696.008,301.907 694.5,304.5C 694.5,305.167 694.167,305.5 693.5,305.5C 690.364,304.979 688.03,305.979 686.5,308.5C 684.316,310.585 681.649,311.585 678.5,311.5C 676.447,311.402 674.78,312.069 673.5,313.5C 668.427,315.435 663.094,316.768 657.5,317.5C 652.9,317.28 648.567,317.946 644.5,319.5C 639.36,320.488 634.026,320.821 628.5,320.5C 572.833,320.5 517.167,320.5 461.5,320.5C 461.5,292.167 461.5,263.833 461.5,235.5C 471.598,235.422 481.598,235.422 491.5,235.5C 511.167,236.833 530.833,236.833 550.5,235.5C 550.833,235.5 551.167,235.5 551.5,235.5C 571.329,236.662 591.329,236.829 611.5,236C 614.036,235.814 616.369,235.314 618.5,234.5C 627.885,233.627 631.718,228.627 630,219.5C 625.621,216.596 620.787,215.096 615.5,215C 602.504,214.5 589.504,214.333 576.5,214.5C 569.691,213.348 562.691,212.681 555.5,212.5C 547.528,212.248 539.861,210.915 532.5,208.5C 530.162,206.96 527.495,206.294 524.5,206.5C 522.421,206.029 520.421,205.363 518.5,204.5C 516.824,202.166 514.491,201.166 511.5,201.5C 507.849,200.341 504.515,198.674 501.5,196.5C 501.027,195.094 500.027,194.427 498.5,194.5C 498.027,193.094 497.027,192.427 495.5,192.5C 495.027,191.094 494.027,190.427 492.5,190.5C 491.738,188.738 490.404,187.738 488.5,187.5C 484.833,184.5 481.5,181.167 478.5,177.5C 478.446,175.368 477.446,174.035 475.5,173.5C 474.662,173.158 474.328,172.492 474.5,171.5C 474.446,169.368 473.446,168.035 471.5,167.5C 470.227,165.287 469.227,162.954 468.5,160.5C 468.598,158.447 467.931,156.78 466.5,155.5C 463.447,148.247 461.781,140.58 461.5,132.5C 461.381,121.482 461.714,110.482 462.5,99.5C 462.205,97.2646 462.539,95.2646 463.5,93.5C 464.117,93.3893 464.617,93.056 465,92.5C 465.61,89.1727 466.11,85.8394 466.5,82.5C 468.834,80.8243 469.834,78.491 469.5,75.5C 469.66,73.847 470.326,72.5137 471.5,71.5C 473.408,70.5144 474.408,68.8477 474.5,66.5C 475.906,66.0269 476.573,65.0269 476.5,63.5C 476.738,61.5956 477.738,60.2623 479.5,59.5C 481.262,58.7377 482.262,57.4044 482.5,55.5C 486.436,53.2343 489.769,50.2343 492.5,46.5C 494.404,46.2624 495.738,45.2624 496.5,43.5C 498.027,43.573 499.027,42.9063 499.5,41.5C 501.027,41.573 502.027,40.9063 502.5,39.5C 504.181,37.9925 506.181,36.9925 508.5,36.5C 516.701,33.8796 524.701,30.8796 532.5,27.5C 535.219,26.087 538.219,25.4203 541.5,25.5C 545.817,25.9166 549.817,25.2499 553.5,23.5C 558.64,22.5119 563.974,22.1786 569.5,22.5 Z"/></g>
<g><path style="opacity:1" fill="#b12a24" d="M 759.5,22.5 C 794.833,22.5 830.167,22.5 865.5,22.5C 865.5,121.833 865.5,221.167 865.5,320.5C 830.167,320.5 794.833,320.5 759.5,320.5C 759.198,221.047 759.198,121.713 759.5,22.5 Z"/></g>
<g><path style="opacity:1" fill="#b22a24" d="M 887.5,22.5 C 943.5,22.5 999.5,22.5 1055.5,22.5C 1057.83,22.5 1060.17,22.5 1062.5,22.5C 1068.59,24.236 1074.92,25.236 1081.5,25.5C 1088.65,27.7891 1095.98,29.7891 1103.5,31.5C 1105.21,32.7384 1107.21,33.405 1109.5,33.5C 1114.26,34.7164 1118.6,36.7164 1122.5,39.5C 1123.34,41.7593 1125.01,42.7593 1127.5,42.5C 1132.36,44.7629 1136.7,47.7629 1140.5,51.5C 1141.58,53.5869 1143.25,54.9202 1145.5,55.5C 1146.5,55.8333 1147.17,56.5 1147.5,57.5C 1149.43,61.1002 1152.1,64.1002 1155.5,66.5C 1157.26,67.2623 1158.26,68.5956 1158.5,70.5C 1158.7,72.0443 1159.37,73.3777 1160.5,74.5C 1160.02,75.4776 1159.36,76.3109 1158.5,77C 1162.14,77.556 1164.14,79.7227 1164.5,83.5C 1165.18,83.1373 1165.85,82.8039 1166.5,82.5C 1175.8,98.9023 1181.63,116.569 1184,135.5C 1187.03,157.5 1187.19,179.5 1184.5,201.5C 1183.4,202.848 1182.4,204.348 1181.5,206C 1182.44,208.381 1182.77,210.881 1182.5,213.5C 1182.29,218.683 1181.29,223.683 1179.5,228.5C 1177.72,229.99 1177.05,231.99 1177.5,234.5C 1177.5,234.833 1177.5,235.167 1177.5,235.5C 1175.69,236.772 1174.02,238.272 1172.5,240C 1173.97,240.71 1174.64,241.876 1174.5,243.5C 1172.62,249.587 1169.96,255.254 1166.5,260.5C 1164.24,261.344 1163.24,263.011 1163.5,265.5C 1162.66,267.853 1161.33,269.853 1159.5,271.5C 1158.09,271.973 1157.43,272.973 1157.5,274.5C 1157.17,275.5 1156.5,276.167 1155.5,276.5C 1154.09,276.973 1153.43,277.973 1153.5,279.5C 1152.5,279.833 1151.83,280.5 1151.5,281.5C 1151.5,282.167 1151.17,282.5 1150.5,282.5C 1149.85,282.196 1149.18,281.863 1148.5,281.5C 1145.54,283.442 1143.87,286.108 1143.5,289.5C 1141.97,289.427 1140.97,290.094 1140.5,291.5C 1129.82,301.008 1117.49,307.675 1103.5,311.5C 1097.31,312.877 1091.31,314.544 1085.5,316.5C 1084.79,317.404 1083.79,317.737 1082.5,317.5C 1078.21,317.198 1074.21,317.864 1070.5,319.5C 1065.69,320.487 1060.69,320.821 1055.5,320.5C 999.5,320.5 943.5,320.5 887.5,320.5C 887.498,221.37 887.498,122.037 887.5,22.5 Z M 996.5,107.5 C 1009.18,107.635 1021.18,107.635 1032.5,107.5C 1040.82,107.73 1048.82,109.397 1056.5,112.5C 1056.97,113.906 1057.97,114.573 1059.5,114.5C 1059.97,115.906 1060.97,116.573 1062.5,116.5C 1062.83,117.5 1063.5,118.167 1064.5,118.5C 1064.43,120.027 1065.09,121.027 1066.5,121.5C 1070.81,128.428 1074.14,135.761 1076.5,143.5C 1076.44,148.076 1077.1,152.409 1078.5,156.5C 1078.5,166.167 1078.5,175.833 1078.5,185.5C 1077.38,189.295 1076.72,193.295 1076.5,197.5C 1076.5,197.833 1076.5,198.167 1076.5,198.5C 1075.13,201.619 1074.13,204.952 1073.5,208.5C 1070.92,214.66 1067.59,220.327 1063.5,225.5C 1061.6,225.738 1060.26,226.738 1059.5,228.5C 1057.97,228.427 1056.97,229.094 1056.5,230.5C 1053.98,231.264 1051.65,232.264 1049.5,233.5C 1044,233.952 1038.67,234.619 1033.5,235.5C 1020.96,234.868 1008.62,234.868 996.5,235.5C 996.217,234.711 995.717,234.044 995,233.5C 994.833,212.667 994.667,191.833 994.5,171C 994.511,149.617 995.178,128.45 996.5,107.5 Z"/></g>
<g><path style="opacity:1" fill="#b22b24" d="M 1207.5,22.5 C 1292.67,22.1673 1377.67,22.5007 1462.5,23.5C 1462.5,51.1667 1462.5,78.8333 1462.5,106.5C 1412.66,106.168 1363,106.501 1313.5,107.5C 1313.5,114.5 1313.5,121.5 1313.5,128.5C 1362.66,129.333 1412,129.833 1461.5,130C 1462.5,158.093 1462.83,186.259 1462.5,214.5C 1413.17,214.5 1363.83,214.5 1314.5,214.5C 1313.51,221.648 1313.18,228.981 1313.5,236.5C 1362.83,236.5 1412.17,236.5 1461.5,236.5C 1461.26,237.791 1461.6,238.791 1462.5,239.5C 1462.5,266.5 1462.5,293.5 1462.5,320.5C 1377.5,320.5 1292.5,320.5 1207.5,320.5C 1206.17,221.167 1206.17,121.833 1207.5,22.5 Z"/></g>
<g><path style="opacity:1" fill="#b12a24" d="M 1652.5,22.5 C 1667.01,22.4739 1681.01,24.8072 1694.5,29.5C 1694.39,30.1174 1694.06,30.6174 1693.5,31C 1695.81,31.4966 1698.14,31.6633 1700.5,31.5C 1702.43,33.2927 1704.76,34.2927 1707.5,34.5C 1708.68,36.913 1710.68,37.913 1713.5,37.5C 1716.76,38.7738 1719.76,40.4405 1722.5,42.5C 1722.77,44.3117 1723.44,45.9783 1724.5,47.5C 1725.73,46.6371 1727.06,46.6371 1728.5,47.5C 1729.26,49.2624 1730.6,50.2624 1732.5,50.5C 1734.17,51.5 1735.5,52.8333 1736.5,54.5C 1737.42,57.0892 1739.09,59.0892 1741.5,60.5C 1741.74,62.4044 1742.74,63.7377 1744.5,64.5C 1744.43,66.0269 1745.09,67.0269 1746.5,67.5C 1746.43,69.0269 1747.09,70.0269 1748.5,70.5C 1751.28,74.4047 1753.28,78.738 1754.5,83.5C 1754.72,87.1621 1755.72,90.4954 1757.5,93.5C 1758.91,96.2186 1759.58,99.2186 1759.5,102.5C 1759.3,107.75 1759.97,112.75 1761.5,117.5C 1761.5,118.167 1761.5,118.833 1761.5,119.5C 1761.63,131.551 1760.96,143.551 1759.5,155.5C 1757.9,159.239 1756.9,163.239 1756.5,167.5C 1755.85,167.804 1755.18,168.137 1754.5,168.5C 1753.52,171.086 1753.19,173.753 1753.5,176.5C 1753.67,177.492 1753.34,178.158 1752.5,178.5C 1751.07,179.78 1750.4,181.447 1750.5,183.5C 1749.32,186.54 1747.65,189.206 1745.5,191.5C 1744.09,191.973 1743.43,192.973 1743.5,194.5C 1743.5,195.167 1743.17,195.5 1742.5,195.5C 1741.18,196.942 1739.51,197.608 1737.5,197.5C 1737.5,198.833 1737.5,200.167 1737.5,201.5C 1737.5,202.167 1737.17,202.5 1736.5,202.5C 1732.5,202.5 1730.5,204.5 1730.5,208.5C 1729.42,210.543 1727.75,211.876 1725.5,212.5C 1723.97,212.427 1722.97,213.094 1722.5,214.5C 1720.97,214.427 1719.97,215.094 1719.5,216.5C 1717.45,217.053 1717.11,218.053 1718.5,219.5C 1720.11,222.378 1721.44,225.378 1722.5,228.5C 1722.12,230.698 1722.79,232.365 1724.5,233.5C 1724.17,236.491 1725.17,238.824 1727.5,240.5C 1727.12,242.698 1727.79,244.365 1729.5,245.5C 1729.16,247.483 1729.82,248.817 1731.5,249.5C 1731.12,251.698 1731.79,253.365 1733.5,254.5C 1733.17,257.491 1734.17,259.824 1736.5,261.5C 1736.17,264.491 1737.17,266.824 1739.5,268.5C 1739.12,270.698 1739.79,272.365 1741.5,273.5C 1741.99,275.807 1741.99,277.973 1741.5,280C 1742.47,281.481 1743.8,282.315 1745.5,282.5C 1745.12,284.698 1745.79,286.365 1747.5,287.5C 1747.5,291.165 1748.84,294.165 1751.5,296.5C 1752.54,297.93 1753.2,299.597 1753.5,301.5C 1753.17,304.491 1754.17,306.824 1756.5,308.5C 1758.29,310.426 1759.29,312.759 1759.5,315.5C 1759.5,317.167 1759.5,318.833 1759.5,320.5C 1724.12,320.82 1688.79,320.487 1653.5,319.5C 1653.5,319.167 1653.5,318.833 1653.5,318.5C 1653.81,315.753 1653.48,313.086 1652.5,310.5C 1651.82,310.863 1651.15,311.196 1650.5,311.5C 1639.99,288.467 1629.99,265.134 1620.5,241.5C 1620.6,239.447 1619.93,237.78 1618.5,236.5C 1609.5,236.5 1600.5,236.5 1591.5,236.5C 1590.83,264.5 1590.17,292.5 1589.5,320.5C 1589.65,319.448 1589.48,318.448 1589,317.5C 1587.72,317.381 1586.55,317.881 1585.5,319C 1553.83,319.667 1522.17,319.667 1490.5,319C 1489.32,318.033 1487.99,317.533 1486.5,317.5C 1485.83,228.668 1485.17,140.001 1484.5,51.5C 1484.5,41.8333 1484.5,32.1667 1484.5,22.5C 1540.5,22.5 1596.5,22.5 1652.5,22.5 Z M 1600.5,107.5 C 1613.84,107.488 1627.18,107.821 1640.5,108.5C 1646.88,111.053 1651.05,115.72 1653,122.5C 1653.5,126.821 1653.67,131.154 1653.5,135.5C 1652.64,137.421 1651.97,139.421 1651.5,141.5C 1649.14,143.529 1646.81,145.529 1644.5,147.5C 1640.36,148.206 1636.19,148.872 1632,149.5C 1619.56,148.261 1606.89,148.261 1594,149.5C 1593.33,148.833 1592.67,148.167 1592,147.5C 1591.5,134.504 1591.33,121.504 1591.5,108.5C 1594.71,108.81 1597.71,108.477 1600.5,107.5 Z"/></g>
<g><path style="opacity:0.235" fill="#e4c3c3" d="M 1062.5,22.5 C 1069.11,22.5473 1075.44,23.5473 1081.5,25.5C 1074.92,25.236 1068.59,24.236 1062.5,22.5 Z"/></g>
<g><path style="opacity:0.031" fill="#f9fbf8" d="M 265.5,21.5 C 270.53,23.4738 270.53,24.8071 265.5,25.5C 265.5,24.1667 265.5,22.8333 265.5,21.5 Z"/></g>
<g><path style="opacity:1" fill="#cf908d" d="M 553.5,23.5 C 549.817,25.2499 545.817,25.9166 541.5,25.5C 545.295,24.3833 549.295,23.7167 553.5,23.5 Z"/></g>
<g><path style="opacity:0.086" fill="#e7bebe" d="M 1081.5,25.5 C 1089.28,26.2758 1096.61,28.2758 1103.5,31.5C 1095.98,29.7891 1088.65,27.7891 1081.5,25.5 Z"/></g>
<g><path style="opacity:0.216" fill="#f1dad8" d="M 252.5,27.5 C 253.906,27.9731 254.573,28.9731 254.5,30.5C 253.094,30.0269 252.427,29.0269 252.5,27.5 Z"/></g>
<g><path style="opacity:1" fill="#d88479" d="M 1694.5,29.5 C 1696.79,29.595 1698.79,30.2616 1700.5,31.5C 1698.14,31.6633 1695.81,31.4966 1693.5,31C 1694.06,30.6174 1694.39,30.1174 1694.5,29.5 Z"/></g>
<g><path style="opacity:0.914" fill="#db8f8c" d="M 532.5,27.5 C 524.701,30.8796 516.701,33.8796 508.5,36.5C 515.982,32.3363 523.982,29.3363 532.5,27.5 Z"/></g>
<g><path style="opacity:0.02" fill="#efd1cd" d="M 1103.5,31.5 C 1105.9,31.2594 1107.9,31.9261 1109.5,33.5C 1107.21,33.405 1105.21,32.7384 1103.5,31.5 Z"/></g>
<g><path style="opacity:0.259" fill="#ecc7c7" d="M 1700.5,31.5 C 1703.24,31.7073 1705.57,32.7073 1707.5,34.5C 1704.76,34.2927 1702.43,33.2927 1700.5,31.5 Z"/></g>
<g><path style="opacity:0.914" fill="#d99084" d="M 759.5,22.5 C 777.164,21.8334 794.997,21.5001 813,21.5C 831.314,21.3386 849.481,21.8386 867.5,23C 867.482,122.316 867.149,221.482 866.5,320.5C 866.167,320.5 865.833,320.5 865.5,320.5C 865.5,221.167 865.5,121.833 865.5,22.5C 830.167,22.5 794.833,22.5 759.5,22.5 Z"/></g>
<g><path style="opacity:1" fill="#d7857e" d="M 1707.5,34.5 C 1709.82,34.9925 1711.82,35.9925 1713.5,37.5C 1710.68,37.913 1708.68,36.913 1707.5,34.5 Z"/></g>
<g><path style="opacity:1" fill="#d28079" d="M 256.5,34.5 C 258.822,35.8021 260.155,37.8021 260.5,40.5C 259.883,40.6107 259.383,40.944 259,41.5C 257.864,39.257 257.03,36.9237 256.5,34.5 Z"/></g>
<g><path style="opacity:0.722" fill="#dea7a9" d="M 502.5,39.5 C 502.027,40.9063 501.027,41.573 499.5,41.5C 499.973,40.0937 500.973,39.427 502.5,39.5 Z"/></g>
<g><path style="opacity:1" fill="#df9184" d="M 1122.5,39.5 C 1124.67,39.7497 1126.34,40.7497 1127.5,42.5C 1125.01,42.7593 1123.34,41.7593 1122.5,39.5 Z"/></g>
<g><path style="opacity:0.741" fill="#e1a3a6" d="M 499.5,41.5 C 499.027,42.9063 498.027,43.573 496.5,43.5C 496.973,42.0937 497.973,41.427 499.5,41.5 Z"/></g>
<g><path style="opacity:1" fill="#cc7975" d="M 260.5,40.5 C 261.89,41.8993 262.89,43.5659 263.5,45.5C 261.241,44.656 260.241,42.9893 260.5,40.5 Z"/></g>
<g><path style="opacity:0.678" fill="#dca1a6" d="M 496.5,43.5 C 495.738,45.2624 494.404,46.2624 492.5,46.5C 493.262,44.7376 494.596,43.7376 496.5,43.5 Z"/></g>
<g><path style="opacity:1" fill="#cd675f" d="M 1722.5,42.5 C 1725.11,43.4431 1727.11,45.1097 1728.5,47.5C 1727.06,46.6371 1725.73,46.6371 1724.5,47.5C 1723.44,45.9783 1722.77,44.3117 1722.5,42.5 Z"/></g>
<g><path style="opacity:0.518" fill="#e4b8b7" d="M 263.5,45.5 C 265.262,46.2623 266.262,47.5956 266.5,49.5C 264.738,48.7377 263.738,47.4044 263.5,45.5 Z"/></g>
<g><path style="opacity:0.086" fill="#f1c2c1" d="M 1728.5,47.5 C 1730.4,47.7376 1731.74,48.7376 1732.5,50.5C 1730.6,50.2624 1729.26,49.2624 1728.5,47.5 Z"/></g>
<g><path style="opacity:0.012" fill="#e9cdcb" d="M 1140.5,51.5 C 1142.75,52.0798 1144.42,53.4131 1145.5,55.5C 1143.25,54.9202 1141.58,53.5869 1140.5,51.5 Z"/></g>
<g><path style="opacity:0.431" fill="#eec3bf" d="M 267.5,51.5 C 269.262,52.2623 270.262,53.5956 270.5,55.5C 268.738,54.7377 267.738,53.4044 267.5,51.5 Z"/></g>
<g><path style="opacity:0.937" fill="#d18a8c" d="M 492.5,46.5 C 489.769,50.2343 486.436,53.2343 482.5,55.5C 485.231,51.7657 488.564,48.7657 492.5,46.5 Z"/></g>
<g><path style="opacity:0.871" fill="#e6a6a7" d="M 1736.5,54.5 C 1738.91,55.9108 1740.58,57.9108 1741.5,60.5C 1739.09,59.0892 1737.42,57.0892 1736.5,54.5 Z"/></g>
<g><path style="opacity:0.859" fill="#d99c9b" d="M 482.5,55.5 C 482.262,57.4044 481.262,58.7377 479.5,59.5C 479.738,57.5956 480.738,56.2623 482.5,55.5 Z"/></g>
<g><path style="opacity:1" fill="#d5897b" d="M 569.5,22.5 C 625.665,21.3348 681.999,21.1681 738.5,22C 738.794,42.6563 738.794,62.823 738.5,82.5C 737.503,62.6736 737.17,42.6736 737.5,22.5C 681.5,22.5 625.5,22.5 569.5,22.5 Z"/></g>
<g><path style="opacity:0.902" fill="#deaca5" d="M 1147.5,57.5 C 1150.9,59.8998 1153.57,62.8998 1155.5,66.5C 1152.1,64.1002 1149.43,61.1002 1147.5,57.5 Z"/></g>
<g><path style="opacity:0.451" fill="#e4b6b0" d="M 272.5,59.5 C 273.906,59.9731 274.573,60.9731 274.5,62.5C 273.094,62.0269 272.427,61.0269 272.5,59.5 Z"/></g>
<g><path style="opacity:0.722" fill="#de9fa4" d="M 1741.5,60.5 C 1743.26,61.2623 1744.26,62.5956 1744.5,64.5C 1742.74,63.7377 1741.74,62.4044 1741.5,60.5 Z"/></g>
<g><path style="opacity:1" fill="#be7975" d="M 13.5,21.5 C 49.0039,21.1683 84.3373,21.5016 119.5,22.5C 84.5,22.5 49.5,22.5 14.5,22.5C 14.1691,121.904 14.5025,221.237 15.5,320.5C 14.8333,320.5 14.1667,320.5 13.5,320.5C 12.1667,220.833 12.1667,121.167 13.5,21.5 Z"/></g>
<g><path style="opacity:0.365" fill="#e9c0bd" d="M 274.5,62.5 C 275.906,62.9731 276.573,63.9731 276.5,65.5C 275.094,65.0269 274.427,64.0269 274.5,62.5 Z"/></g>
<g><path style="opacity:0.624" fill="#d99c99" d="M 476.5,63.5 C 476.573,65.0269 475.906,66.0269 474.5,66.5C 474.427,64.9731 475.094,63.9731 476.5,63.5 Z"/></g>
<g><path style="opacity:0.537" fill="#e1a6a9" d="M 1744.5,64.5 C 1745.91,64.9731 1746.57,65.9731 1746.5,67.5C 1745.09,67.0269 1744.43,66.0269 1744.5,64.5 Z"/></g>
<g><path style="opacity:1" fill="#cf7c70" d="M 276.5,65.5 C 277.89,66.8993 278.89,68.5659 279.5,70.5C 277.241,69.656 276.241,67.9893 276.5,65.5 Z"/></g>
<g><path style="opacity:0.365" fill="#e6b9bb" d="M 1746.5,67.5 C 1747.91,67.9731 1748.57,68.9731 1748.5,70.5C 1747.09,70.0269 1746.43,69.0269 1746.5,67.5 Z"/></g>
<g><path style="opacity:1" fill="#d48980" d="M 474.5,66.5 C 474.408,68.8477 473.408,70.5144 471.5,71.5C 471.75,69.326 472.75,67.6594 474.5,66.5 Z"/></g>
<g><path style="opacity:0.518" fill="#dfaba5" d="M 279.5,70.5 C 280.906,70.9731 281.573,71.9731 281.5,73.5C 280.094,73.0269 279.427,72.0269 279.5,70.5 Z"/></g>
<g><path style="opacity:0.431" fill="#e7b9b5" d="M 281.5,73.5 C 282.906,73.9731 283.573,74.9731 283.5,76.5C 282.094,76.0269 281.427,75.0269 281.5,73.5 Z"/></g>
<g><path style="opacity:1" fill="#c5574a" d="M 1158.5,70.5 C 1161.66,74.1477 1164.33,78.1477 1166.5,82.5C 1165.85,82.8039 1165.18,83.1373 1164.5,83.5C 1164.14,79.7227 1162.14,77.556 1158.5,77C 1159.36,76.3109 1160.02,75.4776 1160.5,74.5C 1159.37,73.3777 1158.7,72.0443 1158.5,70.5 Z"/></g>
<g><path style="opacity:0.247" fill="#dfb9b9" d="M 333.5,21.5 C 369.004,21.1683 404.337,21.5016 439.5,22.5C 404.167,22.5 368.833,22.5 333.5,22.5C 333.833,66.1718 333.5,109.838 332.5,153.5C 331.702,153.043 331.369,152.376 331.5,151.5C 332.167,108.167 332.833,64.8333 333.5,21.5 Z"/></g>
<g><path style="opacity:0.396" fill="#e4beba" d="M 283.5,76.5 C 284.906,76.9731 285.573,77.9731 285.5,79.5C 284.094,79.0269 283.427,78.0269 283.5,76.5 Z"/></g>
<g><path style="opacity:1" fill="#d2867d" d="M 469.5,75.5 C 469.834,78.491 468.834,80.8243 466.5,82.5C 466.935,79.8427 467.935,77.5093 469.5,75.5 Z"/></g>
<g><path style="opacity:1" fill="#cf786f" d="M 285.5,79.5 C 286.89,80.8993 287.89,82.5659 288.5,84.5C 286.241,83.656 285.241,81.9893 285.5,79.5 Z"/></g>
<g><path style="opacity:0.463" fill="#e4b4b1" d="M 288.5,84.5 C 289.906,84.9731 290.573,85.9731 290.5,87.5C 289.094,87.0269 288.427,86.0269 288.5,84.5 Z"/></g>
<g><path style="opacity:0.98" fill="#dd9795" d="M 1754.5,83.5 C 1756.28,86.5046 1757.28,89.8379 1757.5,93.5C 1755.72,90.4954 1754.72,87.1621 1754.5,83.5 Z"/></g>
<g><path style="opacity:0.475" fill="#e9b5b0" d="M 290.5,87.5 C 291.906,87.9731 292.573,88.9731 292.5,90.5C 291.094,90.0269 290.427,89.0269 290.5,87.5 Z"/></g>
<g><path style="opacity:1" fill="#cc7874" d="M 466.5,82.5 C 466.11,85.8394 465.61,89.1727 465,92.5C 464.617,93.056 464.117,93.3893 463.5,93.5C 463.742,89.521 464.742,85.8544 466.5,82.5 Z"/></g>
<g><path style="opacity:0.439" fill="#eabbb5" d="M 292.5,90.5 C 293.906,90.9731 294.573,91.9731 294.5,93.5C 293.094,93.0269 292.427,92.0269 292.5,90.5 Z"/></g>
<g><path style="opacity:0.388" fill="#edbfba" d="M 294.5,93.5 C 295.906,93.9731 296.573,94.9731 296.5,96.5C 295.094,96.0269 294.427,95.0269 294.5,93.5 Z"/></g>
<g><path style="opacity:1" fill="#d67d73" d="M 296.5,96.5 C 297.89,97.8993 298.89,99.5659 299.5,101.5C 297.241,100.656 296.241,98.9893 296.5,96.5 Z"/></g>
<g><path style="opacity:0.408" fill="#e8baba" d="M 299.5,101.5 C 300.906,101.973 301.573,102.973 301.5,104.5C 300.094,104.027 299.427,103.027 299.5,101.5 Z"/></g>
<g><path style="opacity:0.388" fill="#eabbbb" d="M 301.5,104.5 C 302.906,104.973 303.573,105.973 303.5,107.5C 302.094,107.027 301.427,106.027 301.5,104.5 Z"/></g>
<g><path style="opacity:0.964" fill="#ce7d78" d="M 614.5,106.5 C 614.5,106.833 614.5,107.167 614.5,107.5C 607.539,107.686 599.872,107.686 591.5,107.5C 598.982,106.508 606.648,106.175 614.5,106.5 Z"/></g>
<g><path style="opacity:0.969" fill="#d17e78" d="M 738.5,105.5 C 739.043,105.56 739.376,105.893 739.5,106.5C 738.441,107.696 737.107,108.363 735.5,108.5C 695.654,108.221 655.321,107.888 614.5,107.5C 614.5,107.167 614.5,106.833 614.5,106.5C 656.003,106.832 697.337,106.499 738.5,105.5 Z"/></g>
<g><path style="opacity:0.835" fill="#c56a69" d="M 994.5,107.5 C 1007.17,106.167 1019.83,106.167 1032.5,107.5C 1021.18,107.635 1009.18,107.635 996.5,107.5C 995.833,107.5 995.167,107.5 994.5,107.5 Z"/></g>
<g><path style="opacity:0.988" fill="#ba5a54" d="M 1462.5,23.5 C 1462.83,23.5 1463.17,23.5 1463.5,23.5C 1463.83,51.5079 1463.5,79.5079 1462.5,107.5C 1413.04,107.94 1364.04,107.94 1315.5,107.5C 1314.83,107.5 1314.17,107.5 1313.5,107.5C 1363,106.501 1412.66,106.168 1462.5,106.5C 1462.5,78.8333 1462.5,51.1667 1462.5,23.5 Z"/></g>
<g><path style="opacity:1" fill="#ce776f" d="M 579.5,108.5 C 575.904,109.969 572.57,111.969 569.5,114.5C 569.215,112.712 569.548,111.045 570.5,109.5C 573.421,108.593 576.421,108.26 579.5,108.5 Z"/></g>
<g><path style="opacity:0.612" fill="#dfa09a" d="M 304.5,109.5 C 305.906,109.973 306.573,110.973 306.5,112.5C 305.094,112.027 304.427,111.027 304.5,109.5 Z"/></g>
<g><path style="opacity:0.318" fill="#e7c0bc" d="M 1056.5,112.5 C 1058.03,112.427 1059.03,113.094 1059.5,114.5C 1057.97,114.573 1056.97,113.906 1056.5,112.5 Z"/></g>
<g><path style="opacity:0.506" fill="#e6aca6" d="M 306.5,112.5 C 307.906,112.973 308.573,113.973 308.5,115.5C 307.094,115.027 306.427,114.027 306.5,112.5 Z"/></g>
<g><path style="opacity:0.392" fill="#e6bdbb" d="M 1059.5,114.5 C 1061.03,114.427 1062.03,115.094 1062.5,116.5C 1060.97,116.573 1059.97,115.906 1059.5,114.5 Z"/></g>
<g><path style="opacity:0.71" fill="#ce9494" d="M 1759.5,102.5 C 1761.03,107.25 1761.7,112.25 1761.5,117.5C 1759.97,112.75 1759.3,107.75 1759.5,102.5 Z"/></g>
<g><path style="opacity:0.376" fill="#ecbfb9" d="M 308.5,115.5 C 309.906,115.973 310.573,116.973 310.5,118.5C 309.094,118.027 308.427,117.027 308.5,115.5 Z"/></g>
<g><path style="opacity:0.406" fill="#e4c4c1" d="M 462.5,99.5 C 461.714,110.482 461.381,121.482 461.5,132.5C 460.834,128.18 460.501,123.68 460.5,119C 460.314,112.262 460.981,105.762 462.5,99.5 Z"/></g>
<g><path style="opacity:0.008" fill="#f1d3cc" d="M 1064.5,118.5 C 1065.91,118.973 1066.57,119.973 1066.5,121.5C 1065.09,121.027 1064.43,120.027 1064.5,118.5 Z"/></g>
<g><path style="opacity:0.094" fill="#f2dada" d="M 1640.5,108.5 C 1646.9,109.641 1651.4,113.308 1654,119.5C 1654.5,124.823 1654.67,130.156 1654.5,135.5C 1654.17,135.5 1653.83,135.5 1653.5,135.5C 1653.67,131.154 1653.5,126.821 1653,122.5C 1651.05,115.72 1646.88,111.053 1640.5,108.5 Z"/></g>
<g><path style="opacity:0.322" fill="#e2bec4" d="M 1313.5,107.5 C 1314.17,107.5 1314.83,107.5 1315.5,107.5C 1314.54,114.412 1314.2,121.412 1314.5,128.5C 1314.17,128.5 1313.83,128.5 1313.5,128.5C 1313.5,121.5 1313.5,114.5 1313.5,107.5 Z"/></g>
<g><path style="opacity:0.482" fill="#e4acab" d="M 311.5,120.5 C 312.906,120.973 313.573,121.973 313.5,123.5C 312.094,123.027 311.427,122.027 311.5,120.5 Z"/></g>
<g><path style="opacity:0.525" fill="#e5abaa" d="M 313.5,123.5 C 314.906,123.973 315.573,124.973 315.5,126.5C 314.094,126.027 313.427,125.027 313.5,123.5 Z"/></g>
<g><path style="opacity:0.365" fill="#e7bcbe" d="M 568.5,122.5 C 574.288,126.496 580.621,128.496 587.5,128.5C 585.833,128.5 584.167,128.5 582.5,128.5C 579.393,128.649 576.393,128.149 573.5,127C 570.885,126.388 569.219,124.888 568.5,122.5 Z"/></g>
<g><path style="opacity:0.494" fill="#e1adaa" d="M 315.5,126.5 C 316.906,126.973 317.573,127.973 317.5,129.5C 316.094,129.027 315.427,128.027 315.5,126.5 Z"/></g>
<g><path style="opacity:0.963" fill="#cc7a70" d="M 636.5,129.5 C 618.326,129.83 600.326,129.497 582.5,128.5C 584.167,128.5 585.833,128.5 587.5,128.5C 593.137,128.401 598.97,128.068 605,127.5C 615.598,128.156 626.098,128.823 636.5,129.5 Z"/></g>
<g><path style="opacity:1" fill="#c45b52" d="M 1462.5,214.5 C 1462.83,186.259 1462.5,158.093 1461.5,130C 1412,129.833 1362.66,129.333 1313.5,128.5C 1313.83,128.5 1314.17,128.5 1314.5,128.5C 1363.32,128.73 1412.15,128.396 1461,127.5C 1461.41,127.957 1461.91,128.291 1462.5,128.5C 1463.83,157.331 1463.83,185.997 1462.5,214.5 Z"/></g>
<g><path style="opacity:0.314" fill="#e5c1c2" d="M 317.5,129.5 C 318.906,129.973 319.573,130.973 319.5,132.5C 318.094,132.027 317.427,131.027 317.5,129.5 Z"/></g>
<g><path style="opacity:1" fill="#ce7973" d="M 657.5,132.5 C 660.781,132.42 663.781,133.087 666.5,134.5C 662.988,135.055 659.988,134.388 657.5,132.5 Z"/></g>
<g><path style="opacity:0.482" fill="#dfabaa" d="M 320.5,134.5 C 321.906,134.973 322.573,135.973 322.5,137.5C 321.094,137.027 320.427,136.027 320.5,134.5 Z"/></g>
<g><path style="opacity:1" fill="#cd766e" d="M 667.5,134.5 C 672.072,135.388 676.405,136.721 680.5,138.5C 678.856,138.286 677.356,138.62 676,139.5C 672.977,138.109 670.143,136.442 667.5,134.5 Z"/></g>
<g><path style="opacity:0.439" fill="#e3b6b3" d="M 322.5,137.5 C 323.906,137.973 324.573,138.973 324.5,140.5C 323.094,140.027 322.427,139.027 322.5,137.5 Z"/></g>
<g><path style="opacity:1" fill="#d2766f" d="M 1653.5,135.5 C 1653.83,135.5 1654.17,135.5 1654.5,135.5C 1654.97,138.393 1653.97,140.393 1651.5,141.5C 1651.97,139.421 1652.64,137.421 1653.5,135.5 Z"/></g>
<g><path style="opacity:0.616" fill="#e8c3c0" d="M 1651.5,141.5 C 1650.39,144.946 1648.05,146.946 1644.5,147.5C 1646.81,145.529 1649.14,143.529 1651.5,141.5 Z"/></g>
<g><path style="opacity:0.667" fill="#e09d95" d="M 325.5,142.5 C 326.906,142.973 327.573,143.973 327.5,145.5C 326.094,145.027 325.427,144.027 325.5,142.5 Z"/></g>
<g><path style="opacity:0.098" fill="#e9d5d7" d="M 1761.5,119.5 C 1763.02,131.599 1762.35,143.599 1759.5,155.5C 1760.96,143.551 1761.63,131.551 1761.5,119.5 Z"/></g>
<g><path style="opacity:0.624" fill="#e39f97" d="M 327.5,145.5 C 328.906,145.973 329.573,146.973 329.5,148.5C 328.094,148.027 327.427,147.027 327.5,145.5 Z"/></g>
<g><path style="opacity:1" fill="#dfa7a5" d="M 1600.5,107.5 C 1597.71,108.477 1594.71,108.81 1591.5,108.5C 1591.33,121.504 1591.5,134.504 1592,147.5C 1592.67,148.167 1593.33,148.833 1594,149.5C 1606.89,148.261 1619.56,148.261 1632,149.5C 1636.19,148.872 1640.36,148.206 1644.5,147.5C 1644.39,148.117 1644.06,148.617 1643.5,149C 1626.2,150.545 1608.87,150.878 1591.5,150C 1590.51,135.912 1590.18,121.745 1590.5,107.5C 1593.83,107.5 1597.17,107.5 1600.5,107.5 Z"/></g>
<g><path style="opacity:0.365" fill="#ebbbb6" d="M 329.5,148.5 C 330.906,148.973 331.573,149.973 331.5,151.5C 330.094,151.027 329.427,150.027 329.5,148.5 Z"/></g>
<g><path style="opacity:0.086" fill="#e5dbdf" d="M 1652.5,22.5 C 1596.5,22.5 1540.5,22.5 1484.5,22.5C 1484.5,32.1667 1484.5,41.8333 1484.5,51.5C 1484.5,141.167 1484.5,230.833 1484.5,320.5C 1484.5,320.833 1484.5,321.167 1484.5,321.5C 1483.5,221.668 1483.17,121.668 1483.5,21.5C 1540,21.1677 1596.34,21.501 1652.5,22.5 Z"/></g>
<g><path style="opacity:0.506" fill="#e3a8a2" d="M 1076.5,143.5 C 1078.05,147.567 1078.72,151.9 1078.5,156.5C 1077.1,152.409 1076.44,148.076 1076.5,143.5 Z"/></g>
<g><path style="opacity:0.031" fill="#eec8c4" d="M 709.5,154.5 C 711.404,154.738 712.738,155.738 713.5,157.5C 711.596,157.262 710.262,156.262 709.5,154.5 Z"/></g>
<g><path style="opacity:0.408" fill="#e1b8b9" d="M 466.5,155.5 C 467.931,156.78 468.598,158.447 468.5,160.5C 467.069,159.22 466.402,157.553 466.5,155.5 Z"/></g>
<g><path style="opacity:0.098" fill="#e4bcb9" d="M 1759.5,155.5 C 1759.42,159.837 1758.42,163.837 1756.5,167.5C 1756.9,163.239 1757.9,159.239 1759.5,155.5 Z"/></g>
<g><path style="opacity:0.839" fill="#e5a8a2" d="M 715.5,159.5 C 717.587,160.585 718.92,162.251 719.5,164.5C 717.413,163.415 716.08,161.749 715.5,159.5 Z"/></g>
<g><path style="opacity:0.698" fill="#d79590" d="M 119.5,22.5 C 119.833,22.5 120.167,22.5 120.5,22.5C 120.632,26.4608 120.965,30.4608 121.5,34.5C 120.669,130.126 120.169,225.793 120,321.5C 85.2417,322.478 50.5751,322.811 16,322.5C 14.699,322.361 13.8656,321.695 13.5,320.5C 14.1667,320.5 14.8333,320.5 15.5,320.5C 50.1667,320.5 84.8333,320.5 119.5,320.5C 119.5,221.167 119.5,121.833 119.5,22.5 Z"/></g>
<g><path style="opacity:0.988" fill="#db9d96" d="M 471.5,167.5 C 473.446,168.035 474.446,169.368 474.5,171.5C 473.026,170.564 472.026,169.23 471.5,167.5 Z"/></g>
<g><path style="opacity:1" fill="#cf776a" d="M 1756.5,167.5 C 1756.07,170.785 1755.07,173.785 1753.5,176.5C 1753.19,173.753 1753.52,171.086 1754.5,168.5C 1755.18,168.137 1755.85,167.804 1756.5,167.5 Z"/></g>
<g><path style="opacity:1" fill="#d27060" d="M 719.5,164.5 C 722.471,166.443 724.471,169.109 725.5,172.5C 722.262,170.844 720.262,168.177 719.5,164.5 Z"/></g>
<g><path style="opacity:0.463" fill="#e3aeaa" d="M 725.5,172.5 C 726.906,172.973 727.573,173.973 727.5,175.5C 726.094,175.027 725.427,174.027 725.5,172.5 Z"/></g>
<g><path style="opacity:0.604" fill="#dfaeaa" d="M 475.5,173.5 C 477.446,174.035 478.446,175.368 478.5,177.5C 477.026,176.564 476.026,175.23 475.5,173.5 Z"/></g>
<g><path style="opacity:0.302" fill="#e4c2be" d="M 1752.5,178.5 C 1752.6,180.553 1751.93,182.22 1750.5,183.5C 1750.4,181.447 1751.07,179.78 1752.5,178.5 Z"/></g>
<g><path style="opacity:0.808" fill="#dfabac" d="M 488.5,187.5 C 490.404,187.738 491.738,188.738 492.5,190.5C 490.596,190.262 489.262,189.262 488.5,187.5 Z"/></g>
<g><path style="opacity:0.729" fill="#d2918e" d="M 492.5,190.5 C 494.027,190.427 495.027,191.094 495.5,192.5C 493.973,192.573 492.973,191.906 492.5,190.5 Z"/></g>
<g><path style="opacity:0.012" fill="#ebd0cf" d="M 1745.5,191.5 C 1745.57,193.027 1744.91,194.027 1743.5,194.5C 1743.43,192.973 1744.09,191.973 1745.5,191.5 Z"/></g>
<g><path style="opacity:0.655" fill="#d59690" d="M 495.5,192.5 C 497.027,192.427 498.027,193.094 498.5,194.5C 496.973,194.573 495.973,193.906 495.5,192.5 Z"/></g>
<g><path style="opacity:1" fill="#df9796" d="M 1078.5,185.5 C 1078.92,189.817 1078.25,193.817 1076.5,197.5C 1076.72,193.295 1077.38,189.295 1078.5,185.5 Z"/></g>
<g><path style="opacity:1" fill="#dc938e" d="M 251.5,194.5 C 253.796,195.733 255.13,197.733 255.5,200.5C 253.684,198.882 252.351,196.882 251.5,194.5 Z"/></g>
<g><path style="opacity:0.451" fill="#e1b1ae" d="M 498.5,194.5 C 500.027,194.427 501.027,195.094 501.5,196.5C 499.973,196.573 498.973,195.906 498.5,194.5 Z"/></g>
<g><path style="opacity:0.608" fill="#ce847c" d="M 994.5,107.5 C 995.167,107.5 995.833,107.5 996.5,107.5C 995.178,128.45 994.511,149.617 994.5,171C 994.667,191.833 994.833,212.667 995,233.5C 995.717,234.044 996.217,234.711 996.5,235.5C 995.5,235.5 994.5,235.5 993.5,235.5C 993.168,192.663 993.501,149.997 994.5,107.5 Z"/></g>
<g><path style="opacity:1" fill="#cf837c" d="M 1742.5,195.5 C 1741.58,198.089 1739.91,200.089 1737.5,201.5C 1737.5,200.167 1737.5,198.833 1737.5,197.5C 1739.51,197.608 1741.18,196.942 1742.5,195.5 Z"/></g>
<g><path style="opacity:0.686" fill="#dea09c" d="M 734.5,192.5 C 736.04,194.838 736.706,197.505 736.5,200.5C 735.232,198.095 734.565,195.428 734.5,192.5 Z"/></g>
<g><path style="opacity:1" fill="#d68d89" d="M 511.5,201.5 C 514.491,201.166 516.824,202.166 518.5,204.5C 515.843,204.065 513.509,203.065 511.5,201.5 Z"/></g>
<g><path style="opacity:0.969" fill="#d78c87" d="M 255.5,200.5 C 257.759,201.344 258.759,203.011 258.5,205.5C 257.11,204.101 256.11,202.434 255.5,200.5 Z"/></g>
<g><path style="opacity:0.796" fill="#e1aaa8" d="M 1076.5,198.5 C 1076.68,202.286 1075.68,205.619 1073.5,208.5C 1074.13,204.952 1075.13,201.619 1076.5,198.5 Z"/></g>
<g><path style="opacity:1" fill="#bd6057" d="M 1736.5,202.5 C 1734.83,204.833 1732.83,206.833 1730.5,208.5C 1730.5,204.5 1732.5,202.5 1736.5,202.5 Z"/></g>
<g><path style="opacity:1" fill="#cf6d60" d="M 1184.5,201.5 C 1184.46,205.733 1183.79,209.733 1182.5,213.5C 1182.77,210.881 1182.44,208.381 1181.5,206C 1182.4,204.348 1183.4,202.848 1184.5,201.5 Z"/></g>
<g><path style="opacity:0.945" fill="#dd9e98" d="M 524.5,206.5 C 527.495,206.294 530.162,206.96 532.5,208.5C 529.572,208.435 526.905,207.768 524.5,206.5 Z"/></g>
<g><path style="opacity:0.184" fill="#f1d2d4" d="M 258.5,205.5 C 260.25,206.659 261.25,208.326 261.5,210.5C 259.75,209.341 258.75,207.674 258.5,205.5 Z"/></g>
<g><path style="opacity:1" fill="#a52925" d="M 143.5,22.5 C 143.667,118.834 143.5,215.167 143,311.5C 142.809,313.708 142.309,315.708 141.5,317.5C 140.836,218.828 141.502,120.494 143.5,22.5 Z"/></g>
<g><path style="opacity:0.408" fill="#e4abaa" d="M 555.5,212.5 C 562.691,212.681 569.691,213.348 576.5,214.5C 576.565,214.938 576.399,215.272 576,215.5C 569.038,214.745 562.205,213.745 555.5,212.5 Z"/></g>
<g><path style="opacity:0.012" fill="#eed9d9" d="M 1725.5,212.5 C 1725.03,213.906 1724.03,214.573 1722.5,214.5C 1722.97,213.094 1723.97,212.427 1725.5,212.5 Z"/></g>
<g><path style="opacity:0.063" fill="#ead2cf" d="M 1722.5,214.5 C 1722.03,215.906 1721.03,216.573 1719.5,216.5C 1719.97,215.094 1720.97,214.427 1722.5,214.5 Z"/></g>
<g><path style="opacity:0.333" fill="#e2b9b5" d="M 1719.5,216.5 C 1718.89,217.391 1718.56,218.391 1718.5,219.5C 1717.11,218.053 1717.45,217.053 1719.5,216.5 Z"/></g>
<g><path style="opacity:1" fill="#da8f8c" d="M 266.5,217.5 C 269.258,219.379 270.925,222.046 271.5,225.5C 269.05,223.371 267.383,220.704 266.5,217.5 Z"/></g>
<g><path style="opacity:0.925" fill="#df9c95" d="M 737.5,207.5 C 738.193,211.565 738.86,215.732 739.5,220C 739.236,226.502 738.569,233.335 737.5,240.5C 737.5,229.5 737.5,218.5 737.5,207.5 Z"/></g>
<g><path style="opacity:0.447" fill="#e6b6ba" d="M 1063.5,225.5 C 1062.74,227.262 1061.4,228.262 1059.5,228.5C 1060.26,226.738 1061.6,225.738 1063.5,225.5 Z"/></g>
<g><path style="opacity:0.98" fill="#de9699" d="M 271.5,225.5 C 274.258,227.379 275.925,230.046 276.5,233.5C 274.336,231.178 272.669,228.511 271.5,225.5 Z"/></g>
<g><path style="opacity:0.58" fill="#e3adb1" d="M 1059.5,228.5 C 1059.03,229.906 1058.03,230.573 1056.5,230.5C 1056.97,229.094 1057.97,228.427 1059.5,228.5 Z"/></g>
<g><path style="opacity:1" fill="#d17d6f" d="M 1179.5,228.5 C 1179.41,230.786 1178.74,232.786 1177.5,234.5C 1177.05,231.99 1177.72,229.99 1179.5,228.5 Z"/></g>
<g><path style="opacity:1" fill="#d69893" d="M 1722.5,228.5 C 1723.54,229.93 1724.2,231.597 1724.5,233.5C 1722.79,232.365 1722.12,230.698 1722.5,228.5 Z"/></g>
<g><path style="opacity:0.824" fill="#d47f80" d="M 1056.5,230.5 C 1054.91,232.821 1052.58,233.821 1049.5,233.5C 1051.65,232.264 1053.98,231.264 1056.5,230.5 Z"/></g>
<g><path style="opacity:1" fill="#e1a09d" d="M 1049.5,233.5 C 1049.08,234.222 1048.42,234.722 1047.5,235C 1042.85,235.499 1038.18,235.666 1033.5,235.5C 1038.67,234.619 1044,233.952 1049.5,233.5 Z"/></g>
<g><path style="opacity:0.937" fill="#e5a5a8" d="M 277.5,235.5 C 279.446,236.035 280.446,237.368 280.5,239.5C 279.026,238.564 278.026,237.23 277.5,235.5 Z"/></g>
<g><path style="opacity:1" fill="#d38173" d="M 550.5,235.5 C 530.833,236.833 511.167,236.833 491.5,235.5C 510.533,234.234 530.2,234.234 550.5,235.5 Z"/></g>
<g><path style="opacity:1" fill="#c0574c" d="M 618.5,234.5 C 616.369,235.314 614.036,235.814 611.5,236C 591.329,236.829 571.329,236.662 551.5,235.5C 573.117,235.615 595.45,235.281 618.5,234.5 Z"/></g>
<g><path style="opacity:1" fill="#bc4e44" d="M 1314.5,214.5 C 1314.5,221.5 1314.5,228.5 1314.5,235.5C 1363.83,235.5 1413.17,235.5 1462.5,235.5C 1462.5,236.833 1462.5,238.167 1462.5,239.5C 1461.6,238.791 1461.26,237.791 1461.5,236.5C 1412.17,236.5 1362.83,236.5 1313.5,236.5C 1313.18,228.981 1313.51,221.648 1314.5,214.5 Z"/></g>
<g><path style="opacity:1" fill="#d7938d" d="M 1724.5,233.5 C 1726.07,235.509 1727.07,237.843 1727.5,240.5C 1725.17,238.824 1724.17,236.491 1724.5,233.5 Z"/></g>
<g><path style="opacity:1" fill="#cf6d5f" d="M 1177.5,235.5 C 1177.02,238.443 1176.02,241.11 1174.5,243.5C 1174.64,241.876 1173.97,240.71 1172.5,240C 1174.02,238.272 1175.69,236.772 1177.5,235.5 Z"/></g>
<g><path style="opacity:0.365" fill="#f0c5c3" d="M 1618.5,236.5 C 1619.93,237.78 1620.6,239.447 1620.5,241.5C 1619.07,240.22 1618.4,238.553 1618.5,236.5 Z"/></g>
<g><path style="opacity:1" fill="#d27c75" d="M 737.5,241.5 C 737.118,246.092 736.118,250.425 734.5,254.5C 734.457,251.133 734.79,247.799 735.5,244.5C 735.64,242.97 736.307,241.97 737.5,241.5 Z"/></g>
<g><path style="opacity:0.988" fill="#d4938e" d="M 1727.5,240.5 C 1728.54,241.93 1729.2,243.597 1729.5,245.5C 1727.79,244.365 1727.12,242.698 1727.5,240.5 Z"/></g>
<g><path style="opacity:0.129" fill="#ebbebe" d="M 281.5,241.5 C 283.796,242.733 285.13,244.733 285.5,247.5C 283.684,245.882 282.351,243.882 281.5,241.5 Z"/></g>
<g><path style="opacity:1" fill="#d38f8b" d="M 1729.5,245.5 C 1730.67,246.514 1731.34,247.847 1731.5,249.5C 1729.82,248.817 1729.16,247.483 1729.5,245.5 Z"/></g>
<g><path style="opacity:0.925" fill="#d39d9a" d="M 1731.5,249.5 C 1732.54,250.93 1733.2,252.597 1733.5,254.5C 1731.79,253.365 1731.12,251.698 1731.5,249.5 Z"/></g>
<g><path style="opacity:0.118" fill="#ebbdbc" d="M 286.5,249.5 C 288.796,250.733 290.13,252.733 290.5,255.5C 288.684,253.882 287.351,251.882 286.5,249.5 Z"/></g>
<g><path style="opacity:1" fill="#d2938d" d="M 1733.5,254.5 C 1735.07,256.509 1736.07,258.843 1736.5,261.5C 1734.17,259.824 1733.17,257.491 1733.5,254.5 Z"/></g>
<g><path style="opacity:0.161" fill="#ecb3af" d="M 290.5,255.5 C 292.796,256.733 294.13,258.733 294.5,261.5C 292.684,259.882 291.351,257.882 290.5,255.5 Z"/></g>
<g><path style="opacity:1" fill="#dc8380" d="M 1166.5,260.5 C 1166.25,262.674 1165.25,264.341 1163.5,265.5C 1163.24,263.011 1164.24,261.344 1166.5,260.5 Z"/></g>
<g><path style="opacity:0.012" fill="#f4dede" d="M 295.5,263.5 C 296.906,263.973 297.573,264.973 297.5,266.5C 296.094,266.027 295.427,265.027 295.5,263.5 Z"/></g>
<g><path style="opacity:1" fill="#d5958f" d="M 1736.5,261.5 C 1738.07,263.509 1739.07,265.843 1739.5,268.5C 1737.17,266.824 1736.17,264.491 1736.5,261.5 Z"/></g>
<g><path style="opacity:1" fill="#c96760" d="M 734.5,254.5 C 733.469,261.885 730.802,268.552 726.5,274.5C 726.167,274.5 725.833,274.5 725.5,274.5C 725.328,272.508 725.995,270.842 727.5,269.5C 727.154,268.304 726.654,268.304 726,269.5C 725.333,268.5 725.333,267.5 726,266.5C 726.333,266.833 726.667,267.167 727,267.5C 730.186,264.95 731.853,261.617 732,257.5C 732.377,256.058 733.21,255.058 734.5,254.5 Z"/></g>
<g><path style="opacity:0.02" fill="#ebbbb8" d="M 297.5,266.5 C 299.796,267.733 301.13,269.733 301.5,272.5C 299.684,270.882 298.351,268.882 297.5,266.5 Z"/></g>
<g><path style="opacity:1" fill="#b72e21" d="M 1484.5,51.5 C 1485.17,140.001 1485.83,228.668 1486.5,317.5C 1487.99,317.533 1489.32,318.033 1490.5,319C 1522.17,319.667 1553.83,319.667 1585.5,319C 1586.55,317.881 1587.72,317.381 1589,317.5C 1589.48,318.448 1589.65,319.448 1589.5,320.5C 1554.5,320.5 1519.5,320.5 1484.5,320.5C 1484.5,230.833 1484.5,141.167 1484.5,51.5 Z"/></g>
<g><path style="opacity:1" fill="#d29089" d="M 1739.5,268.5 C 1740.54,269.93 1741.2,271.597 1741.5,273.5C 1739.79,272.365 1739.12,270.698 1739.5,268.5 Z"/></g>
<g><path style="opacity:0.149" fill="#edced2" d="M 1159.5,271.5 C 1159.57,273.027 1158.91,274.027 1157.5,274.5C 1157.43,272.973 1158.09,271.973 1159.5,271.5 Z"/></g>
<g><path style="opacity:0.012" fill="#f6e4e2" d="M 302.5,274.5 C 303.906,274.973 304.573,275.973 304.5,277.5C 303.094,277.027 302.427,276.027 302.5,274.5 Z"/></g>
<g><path style="opacity:0.161" fill="#eeced0" d="M 725.5,274.5 C 725.833,274.5 726.167,274.5 726.5,274.5C 726.573,276.027 725.906,277.027 724.5,277.5C 724.557,276.391 724.89,275.391 725.5,274.5 Z"/></g>
<g><path style="opacity:0.075" fill="#eec3c2" d="M 1155.5,276.5 C 1155.57,278.027 1154.91,279.027 1153.5,279.5C 1153.43,277.973 1154.09,276.973 1155.5,276.5 Z"/></g>
<g><path style="opacity:1" fill="#c26258" d="M 1741.5,273.5 C 1743.2,276.256 1744.54,279.256 1745.5,282.5C 1743.8,282.315 1742.47,281.481 1741.5,280C 1741.99,277.973 1741.99,275.807 1741.5,273.5 Z"/></g>
<g><path style="opacity:0.012" fill="#fdefec" d="M 1153.5,279.5 C 1153.5,280.833 1152.83,281.5 1151.5,281.5C 1151.83,280.5 1152.5,279.833 1153.5,279.5 Z"/></g>
<g><path style="opacity:0.02" fill="#eabeb7" d="M 304.5,277.5 C 306.796,278.733 308.13,280.733 308.5,283.5C 306.684,281.882 305.351,279.882 304.5,277.5 Z"/></g>
<g><path style="opacity:0.075" fill="#f0d2d1" d="M 724.5,277.5 C 724.155,280.198 722.822,282.198 720.5,283.5C 721.34,281.147 722.674,279.147 724.5,277.5 Z"/></g>
<g><path style="opacity:0.937" fill="#e2aaa2" d="M 309.5,285.5 C 311.446,286.035 312.446,287.368 312.5,289.5C 311.026,288.564 310.026,287.23 309.5,285.5 Z"/></g>
<g><path style="opacity:1" fill="#d06b65" d="M 1150.5,282.5 C 1148.5,285.167 1146.17,287.5 1143.5,289.5C 1143.87,286.108 1145.54,283.442 1148.5,281.5C 1149.18,281.863 1149.85,282.196 1150.5,282.5 Z"/></g>
<g><path style="opacity:1" fill="#d89b94" d="M 1745.5,282.5 C 1746.93,283.78 1747.6,285.447 1747.5,287.5C 1745.79,286.365 1745.12,284.698 1745.5,282.5 Z"/></g>
<g><path style="opacity:0.043" fill="#f3dad6" d="M 719.5,284.5 C 716.5,289.5 712.5,293.5 707.5,296.5C 711.167,292.167 715.167,288.167 719.5,284.5 Z"/></g>
<g><path style="opacity:0.012" fill="#f4dedf" d="M 1143.5,289.5 C 1143.03,290.906 1142.03,291.573 1140.5,291.5C 1140.97,290.094 1141.97,289.427 1143.5,289.5 Z"/></g>
<g><path style="opacity:1" fill="#db948f" d="M 1747.5,287.5 C 1749.59,290.088 1750.93,293.088 1751.5,296.5C 1748.84,294.165 1747.5,291.165 1747.5,287.5 Z"/></g>
<g><path style="opacity:0.129" fill="#ecbeb3" d="M 313.5,291.5 C 315.796,292.733 317.13,294.733 317.5,297.5C 315.684,295.882 314.351,293.882 313.5,291.5 Z"/></g>
<g><path style="opacity:0.075" fill="#f4ddd5" d="M 707.5,296.5 C 707.027,297.906 706.027,298.573 704.5,298.5C 704.973,297.094 705.973,296.427 707.5,296.5 Z"/></g>
<g><path style="opacity:0.012" fill="#f2dedb" d="M 704.5,298.5 C 704.027,299.906 703.027,300.573 701.5,300.5C 701.973,299.094 702.973,298.427 704.5,298.5 Z"/></g>
<g><path style="opacity:1" fill="#d78f87" d="M 701.5,300.5 C 699.664,302.588 697.331,303.921 694.5,304.5C 696.008,301.907 698.341,300.574 701.5,300.5 Z"/></g>
<g><path style="opacity:0.565" fill="#e2aaa7" d="M 251.5,194.5 C 250.542,194.047 249.708,193.381 249,192.5C 248.667,235.5 248.333,278.5 248,321.5C 212.43,322.735 176.93,322.735 141.5,321.5C 141.5,321.167 141.5,320.833 141.5,320.5C 176.833,320.5 212.167,320.5 247.5,320.5C 247.167,276.828 247.5,233.162 248.5,189.5C 250.262,190.688 251.262,192.355 251.5,194.5 Z"/></g>
<g><path style="opacity:0.161" fill="#f3d5ce" d="M 319.5,300.5 C 321.25,301.659 322.25,303.326 322.5,305.5C 320.75,304.341 319.75,302.674 319.5,300.5 Z"/></g>
<g><path style="opacity:1" fill="#d28c82" d="M 1753.5,301.5 C 1755.07,303.509 1756.07,305.843 1756.5,308.5C 1754.17,306.824 1753.17,304.491 1753.5,301.5 Z"/></g>
<g><path style="opacity:1" fill="#cf7d75" d="M 693.5,305.5 C 691.351,306.736 689.018,307.736 686.5,308.5C 688.03,305.979 690.364,304.979 693.5,305.5 Z"/></g>
<g><path style="opacity:0.129" fill="#f3d8d1" d="M 322.5,305.5 C 324.063,306.945 325.396,308.611 326.5,310.5C 326.5,310.833 326.5,311.167 326.5,311.5C 324.178,310.198 322.845,308.198 322.5,305.5 Z"/></g>
<g><path style="opacity:1" fill="#cc756a" d="M 326.5,310.5 C 328.201,311.211 329.201,312.545 329.5,314.5C 329.167,314.5 328.833,314.5 328.5,314.5C 327.094,314.027 326.427,313.027 326.5,311.5C 326.5,311.167 326.5,310.833 326.5,310.5 Z"/></g>
<g><path style="opacity:1" fill="#cc7065" d="M 1653.5,318.5 C 1651.71,316.574 1650.71,314.241 1650.5,311.5C 1651.15,311.196 1651.82,310.863 1652.5,310.5C 1653.48,313.086 1653.81,315.753 1653.5,318.5 Z"/></g>
<g><path style="opacity:0.184" fill="#ecc8c5" d="M 678.5,311.5 C 677.22,312.931 675.553,313.598 673.5,313.5C 674.78,312.069 676.447,311.402 678.5,311.5 Z"/></g>
<g><path style="opacity:0.118" fill="#eacac8" d="M 1103.5,311.5 C 1097.95,314.39 1091.95,316.057 1085.5,316.5C 1091.31,314.544 1097.31,312.877 1103.5,311.5 Z"/></g>
<g><path style="opacity:0.259" fill="#ebbbb6" d="M 657.5,317.5 C 653.382,318.709 649.049,319.376 644.5,319.5C 648.567,317.946 652.9,317.28 657.5,317.5 Z"/></g>
<g><path style="opacity:0.086" fill="#e8cdcd" d="M 1082.5,317.5 C 1078.73,318.795 1074.73,319.461 1070.5,319.5C 1074.21,317.864 1078.21,317.198 1082.5,317.5 Z"/></g>
<g><path style="opacity:0.043" fill="#f1dcdb" d="M 328.5,314.5 C 328.833,314.5 329.167,314.5 329.5,314.5C 330.351,316.882 331.684,318.882 333.5,320.5C 333.5,320.833 333.5,321.167 333.5,321.5C 330.647,320.167 328.981,317.834 328.5,314.5 Z"/></g>
<g><path style="opacity:0.728" fill="#cf9290" d="M 439.5,22.5 C 439.833,22.5 440.167,22.5 440.5,22.5C 440.667,122.167 440.5,221.834 440,321.5C 404.648,321.519 369.148,321.519 333.5,321.5C 333.5,321.167 333.5,320.833 333.5,320.5C 368.833,320.5 404.167,320.5 439.5,320.5C 439.5,221.167 439.5,121.833 439.5,22.5 Z"/></g>
<g><path style="opacity:0.42" fill="#d5aeab" d="M 461.5,235.5 C 461.5,263.833 461.5,292.167 461.5,320.5C 517.167,320.5 572.833,320.5 628.5,320.5C 572.669,321.499 516.669,321.832 460.5,321.5C 460.828,293.259 460.495,265.093 459.5,237C 460.044,236.283 460.711,235.783 461.5,235.5 Z"/></g>
<g><path style="opacity:0.412" fill="#d3b0b0" d="M 759.5,320.5 C 794.833,320.5 830.167,320.5 865.5,320.5C 865.833,320.5 866.167,320.5 866.5,320.5C 831.431,321.17 796.264,321.836 761,322.5C 760.283,321.956 759.783,321.289 759.5,320.5 Z"/></g>
<g><path style="opacity:0.439" fill="#d2afaf" d="M 887.5,320.5 C 943.5,320.5 999.5,320.5 1055.5,320.5C 1000.1,321.169 944.598,321.835 889,322.5C 888.283,321.956 887.783,321.289 887.5,320.5 Z"/></g>
<g><path style="opacity:0.475" fill="#ca9c98" d="M 1462.5,235.5 C 1463.5,263.995 1463.83,292.662 1463.5,321.5C 1378.6,321.168 1293.76,321.502 1209,322.5C 1208.28,321.956 1207.78,321.289 1207.5,320.5C 1292.5,320.5 1377.5,320.5 1462.5,320.5C 1462.5,293.5 1462.5,266.5 1462.5,239.5C 1462.5,238.167 1462.5,236.833 1462.5,235.5 Z"/></g>
<g><path style="opacity:0.494" fill="#ce9c9a" d="M 1591.5,236.5 C 1591.5,264.833 1591.5,293.167 1591.5,321.5C 1555.83,321.5 1520.17,321.5 1484.5,321.5C 1484.5,321.167 1484.5,320.833 1484.5,320.5C 1519.5,320.5 1554.5,320.5 1589.5,320.5C 1590.17,292.5 1590.83,264.5 1591.5,236.5 Z"/></g>
<g><path style="opacity:0.468" fill="#cda3a4" d="M 1759.5,315.5 C 1760.39,317.291 1761.39,319.124 1762.5,321C 1726.5,321.667 1690.5,321.667 1654.5,321C 1653.94,320.617 1653.61,320.117 1653.5,319.5C 1688.79,320.487 1724.12,320.82 1759.5,320.5C 1759.5,318.833 1759.5,317.167 1759.5,315.5 Z"/></g>
</svg>
